<svg width="14" height="14" viewBox="0 0 14 14" fill="none" xmlns="http://www.w3.org/2000/svg">
<rect width="14" height="14" fill="#F5F5F5"/>
<g clip-path="url(#clip0_2_6241)">
<rect width="1440" height="11606" transform="translate(-369 -4978)" fill="#FFFCF5"/>
<g filter="url(#filter0_d_2_6241)">
<g clip-path="url(#clip1_2_6241)">
<rect x="-164" y="-395" width="199.969" height="433" rx="9.59852" fill="white"/>
<g filter="url(#filter1_d_2_6241)">
<circle cx="-6.158" cy="-45.1872" r="20.7968" fill="white"/>
</g>
<path d="M-164 -5.72656H35.9692V19.8695H-164V-5.72656Z" fill="#455A64"/>
<path d="M7.17363 6.00498C8.2044 6.00498 9.04001 5.16937 9.04001 4.1386C9.04001 3.10782 8.2044 2.27222 7.17363 2.27222C6.14286 2.27222 5.30725 3.10782 5.30725 4.1386C5.30725 5.16937 6.14286 6.00498 7.17363 6.00498Z" fill="#ADAFBB" stroke="#ADAFBB" stroke-width="1.0665" stroke-linecap="round" stroke-linejoin="round"/>
<path d="M2.37439 11.5507V11.8707H11.9729V11.5507C11.9729 10.3562 11.9729 9.75886 11.7404 9.30259C11.5359 8.90124 11.2096 8.57491 10.8083 8.37041C10.352 8.13794 9.75469 8.13794 8.5601 8.13794H5.7872C4.59261 8.13794 3.99531 8.13794 3.53904 8.37041C3.13768 8.57491 2.81137 8.90124 2.60687 9.30259C2.37439 9.75886 2.37439 10.3562 2.37439 11.5507Z" fill="#ADAFBB" stroke="#ADAFBB" stroke-width="1.0665" stroke-linecap="round" stroke-linejoin="round"/>
</g>
<rect x="-163.5" y="-394.5" width="198.969" height="432" rx="9.09852" stroke="#455A64"/>
</g>
</g>
<defs>
<filter id="filter0_d_2_6241" x="-172" y="-403" width="223.969" height="457" filterUnits="userSpaceOnUse" color-interpolation-filters="sRGB">
<feFlood flood-opacity="0" result="BackgroundImageFix"/>
<feColorMatrix in="SourceAlpha" type="matrix" values="0 0 0 0 0 0 0 0 0 0 0 0 0 0 0 0 0 0 127 0" result="hardAlpha"/>
<feOffset dx="4" dy="4"/>
<feGaussianBlur stdDeviation="6"/>
<feComposite in2="hardAlpha" operator="out"/>
<feColorMatrix type="matrix" values="0 0 0 0 0 0 0 0 0 0 0 0 0 0 0 0 0 0 0.25 0"/>
<feBlend mode="normal" in2="BackgroundImageFix" result="effect1_dropShadow_2_6241"/>
<feBlend mode="normal" in="SourceGraphic" in2="effect1_dropShadow_2_6241" result="shape"/>
</filter>
<filter id="filter1_d_2_6241" x="-53.6174" y="-81.9815" width="94.9187" height="94.9188" filterUnits="userSpaceOnUse" color-interpolation-filters="sRGB">
<feFlood flood-opacity="0" result="BackgroundImageFix"/>
<feColorMatrix in="SourceAlpha" type="matrix" values="0 0 0 0 0 0 0 0 0 0 0 0 0 0 0 0 0 0 127 0" result="hardAlpha"/>
<feOffset dy="10.665"/>
<feGaussianBlur stdDeviation="13.3313"/>
<feColorMatrix type="matrix" values="0 0 0 0 0 0 0 0 0 0 0 0 0 0 0 0 0 0 0.07 0"/>
<feBlend mode="normal" in2="BackgroundImageFix" result="effect1_dropShadow_2_6241"/>
<feBlend mode="normal" in="SourceGraphic" in2="effect1_dropShadow_2_6241" result="shape"/>
</filter>
<clipPath id="clip0_2_6241">
<rect width="1440" height="11606" fill="white" transform="translate(-369 -4978)"/>
</clipPath>
<clipPath id="clip1_2_6241">
<rect x="-164" y="-395" width="199.969" height="433" rx="9.59852" fill="white"/>
</clipPath>
</defs>
</svg>
